<svg xmlns="http://www.w3.org/2000/svg" viewBox="0 0 260.48 248.18"><defs><style>.cls-1{fill:none;}.cls-2{fill:#fff;}</style></defs><g id="Layer_2" data-name="Layer 2"><g id="Layer_3" data-name="Layer 3"><path class="cls-1" d="M90.18,88.25a82.68,82.68,0,0,0,40.06,70.23,82.69,82.69,0,0,0,40.07-70.23,82.44,82.44,0,0,0-80.13,0Zm32.26,32.89c0,4.89-2.21,7.25-7.35,7.25a15,15,0,0,1-3.07-.34v-3.41a23.57,23.57,0,0,0,3.27.24c2,0,3.07-.91,3.07-3.41V96.37h4.08Zm26.59-17v1.2a8,8,0,0,1-5.95,7.92l8.16,14.5h-4.56l-7.63-13.63a43.69,43.69,0,0,1-5.33-.1v13.73h-4.08V96c2.69-.1,5.61-.24,8.35-.24C145.81,95.79,149,99.1,149,104.19Z"/><path class="cls-1" d="M47.6,159.93a82.41,82.41,0,0,0,77.64,1.32,87.67,87.67,0,0,1-40-70A82.62,82.62,0,0,0,47.6,159.93Z"/><path class="cls-1" d="M135.24,161.25a82.43,82.43,0,0,0,77.65-1.32,82.65,82.65,0,0,0-37.65-68.69A87.67,87.67,0,0,1,135.24,161.25Z"/><path class="cls-1" d="M85.19,85.35a87.69,87.69,0,0,1,40.05-71.28A82.62,82.62,0,0,0,42.66,156.94,87.72,87.72,0,0,1,85.19,85.35Z"/><path class="cls-1" d="M145,105.29v-1c0-3.36-2-5.08-7.06-5.08-1,0-2.83,0-4.17.14v11.28a40.89,40.89,0,0,0,4.32.24C142.94,110.91,145,108.75,145,105.29Z"/><path class="cls-1" d="M172.82,5a82.21,82.21,0,0,0-37.58,9.07,87.69,87.69,0,0,1,40,71.28,87.7,87.7,0,0,1,42.53,71.59A82.62,82.62,0,0,0,172.82,5Z"/><path class="cls-1" d="M130.24,164.26a87.52,87.52,0,0,1-82.48,1.44,82.64,82.64,0,0,0,165,0,87.52,87.52,0,0,1-82.48-1.44Z"/><path class="cls-1" d="M130.24,16.84a82.74,82.74,0,0,0-39.9,65.64,87.55,87.55,0,0,1,79.8,0A82.71,82.71,0,0,0,130.24,16.84Z"/><path class="cls-2" d="M260.48,87.66a87.63,87.63,0,0,0-130.24-76.6A87.64,87.64,0,0,0,42.61,162.83a87.66,87.66,0,0,0,175.26,0A87.69,87.69,0,0,0,260.48,87.66ZM5,87.66A82.61,82.61,0,0,1,125.24,14.07a87.69,87.69,0,0,0-40,71.28,87.72,87.72,0,0,0-42.53,71.59A82.63,82.63,0,0,1,5,87.66Zm207.89,72.27a82.43,82.43,0,0,1-77.65,1.32,87.67,87.67,0,0,0,40-70A82.65,82.65,0,0,1,212.89,159.93Zm-82.65-1.45A82.68,82.68,0,0,1,90.18,88.25a82.44,82.44,0,0,1,80.13,0A82.69,82.69,0,0,1,130.24,158.48Zm-45-67.24a87.67,87.67,0,0,0,40,70,82.41,82.41,0,0,1-77.64-1.32A82.62,82.62,0,0,1,85.24,91.24Zm45-18.38a87.08,87.08,0,0,0-39.9,9.62,82.74,82.74,0,0,1,39.9-65.64,82.71,82.71,0,0,1,39.9,65.64A87.08,87.08,0,0,0,130.24,72.86Zm0,170.32A82.76,82.76,0,0,1,47.76,165.7a87.52,87.52,0,0,0,82.48-1.44,87.52,87.52,0,0,0,82.48,1.44A82.75,82.75,0,0,1,130.24,243.18Zm87.58-86.24a87.7,87.7,0,0,0-42.53-71.59,87.69,87.69,0,0,0-40-71.28,82.62,82.62,0,0,1,82.58,142.87Z"/></g></g></svg>
