<svg xmlns="http://www.w3.org/2000/svg" viewBox="0 0 263.56 45.44"><g data-name="Layer 2"><path d="M21 10.5v1.23a8.6 8.6 0 01-6 8.41l8.47 15.25h-5.72L10 21.37a32.65 32.65 0 01-4.9-.11v14.13H0V1.63c2.91-.1 6.37-.25 9.08-.25C17.49 1.38 21 5 21 10.5zM5.1 5.92v11c1.89.15 2.8.2 4 .2 4.74 0 6.73-2.09 6.73-5.45v-.92c0-3.26-2-5-6.83-5-.94.01-2.68.06-3.9.17zm39.52 13.31v7.44c0 5.87-2.85 9.33-9.12 9.33s-9.13-3.46-9.13-9.33v-7.44c0-5.87 2.85-9.34 9.13-9.34s9.12 3.47 9.12 9.34zm-13.26-.31V27c0 3.11 1.53 4.74 4.08 4.74s4.08-1.63 4.08-4.74v-8.13c0-3.11-1.53-4.69-4.08-4.69s-4.08 1.63-4.08 4.74zm31.98-8.36l8.11-.11v4.44l-4.08-.15a8.43 8.43 0 01.82 3.67v1c0 4.69-3.12 8.11-8.93 8.11a13.57 13.57 0 01-3.77-.46 2.41 2.41 0 00-1 1.83v.31c0 .92.46 1.33 2.14 1.48l7.24.51A5.57 5.57 0 0169.36 37v1.89c0 4.18-1.89 6.53-10.81 6.53a34.47 34.47 0 01-8.16-1.23l.15-4.59a29 29 0 008 1.48c5.25 0 5.86-.76 5.86-2.85v-.36a2 2 0 00-2.14-2.19l-7.39-.51c-3.47-.21-5.15-2-5.15-4.85v-1a5.16 5.16 0 012.39-4.13c-1.22-1.32-1.73-3.31-1.73-6.22V18c0-4.79 3-8.06 8.92-8.06a11.84 11.84 0 014.04.62zm-7.9 7.29v1.63c0 3.21.66 3.82 3.57 3.82s4.13-1.37 4.13-3.77V18.1a8.64 8.64 0 00-.56-3.36 8.92 8.92 0 00-3.27-.56c-2.45 0-3.87 1.27-3.87 3.67zm25.24 17.54h-5.05V.56h5.05zm24.12-16.27v5.46H92.1v2.55c0 3.11 1.38 4.38 4.8 4.38a39.6 39.6 0 006.73-.81l.1 4.38a42.08 42.08 0 01-7.09.92c-6.93 0-9.58-2.9-9.58-9.33v-7.55c0-5.91 2.85-9.23 8.82-9.23 5.76 0 8.92 3.22 8.92 9.23zm-12.75-.71v2.29h7.7v-2.14c0-3-1.53-4.38-3.87-4.38s-3.83 1.48-3.83 4.23zm31.32-7.91l-.11 4.39a21.62 21.62 0 00-5-.66c-3 0-4.13 1-4.13 2.55v.35c0 1.13.51 1.64 1.93 2.3l4.75 2.19c3 1.38 4.38 3.47 4.38 6.12v1.07c0 4.69-2.55 7.19-8.82 7.19a28.15 28.15 0 01-6.73-1.07l.2-4.54a25.2 25.2 0 006.48 1.12c3 0 3.87-.76 3.87-2.55v-.4a2.62 2.62 0 00-1.83-2.76l-4.74-2c-3.11-1.42-4.49-3.36-4.49-6v-.72c.1-4.69 2.65-7.19 8.82-7.19a25.66 25.66 0 015.42.61zm39.16 4.34V23c0 8.26-4.38 13-13.15 13-3.32 0-6.07-.1-9.18-.3V1.63c2.44-.1 5.71-.25 9.53-.25 8.21 0 12.8 4.79 12.8 13.46zM145.3 5.92v25.39c1.73.15 3.06.26 4.18.26 4.79 0 7.9-2.81 7.9-8.21v-8.83c0-5.86-3-8.72-7.9-8.72-1.43 0-2.81.05-4.18.11zm29.47-3.27v1.43c0 1.63-1.12 2.6-3.16 2.6s-3.11-1-3.11-2.6V2.65c0-1.73 1.12-2.65 3.11-2.65s3.16.92 3.16 2.65zm-.61 32.74h-5V10.5h5zm19.23-24.83l8.11-.11v4.44l-4.08-.15a8.43 8.43 0 01.81 3.67v1c0 4.69-3.11 8.11-8.92 8.11a13.65 13.65 0 01-3.78-.46 2.43 2.43 0 00-1 1.83v.31c0 .92.45 1.33 2.14 1.48l7.24.51A5.57 5.57 0 01199.4 37v1.89c0 4.18-1.88 6.53-10.81 6.53a34.39 34.39 0 01-8.15-1.23l.15-4.59a28.94 28.94 0 008 1.48c5.26 0 5.87-.76 5.87-2.85v-.36a2 2 0 00-2.14-2.19l-7.4-.51c-3.46-.21-5.15-2-5.15-4.85v-1a5.17 5.17 0 012.4-4.13c-1.22-1.32-1.73-3.31-1.73-6.22V18c0-4.79 2.95-8.06 8.92-8.06a11.84 11.84 0 014.03.62zm-7.91 7.29v1.63c0 3.21.67 3.82 3.57 3.82s4.13-1.37 4.13-3.77V18.1a8.46 8.46 0 00-.56-3.36 8.86 8.86 0 00-3.26-.56c-2.45 0-3.88 1.27-3.88 3.67zm25.86-15.2v1.43c0 1.63-1.12 2.6-3.16 2.6s-3.11-1-3.11-2.6V2.65c0-1.73 1.12-2.65 3.11-2.65s3.16.92 3.16 2.65zm-.61 32.74h-5V10.5h5zm12.8-24.89H230v4.24h-6.42V28.2c0 2.45 1 3.42 3 3.42a20.33 20.33 0 004.18-.51l.1 4.28a19.82 19.82 0 01-4.38.61c-5.51 0-8-2.24-8-8.11V14.74h-3.42V10.5h3.47l.82-6.62h4.18zm28.3 7.91v17h-4.74v-3.74C245.2 34.52 243 36 240.66 36c-3.87 0-6.42-2.8-6.42-7.7v-1.37c0-4.19 2.91-7.19 7.75-7.19a31.47 31.47 0 014.79.56v-2.4c0-2.65-1.17-3.62-3.82-3.62a45.4 45.4 0 00-6.78.81v-4.38a49.44 49.44 0 017-.82c6.1 0 8.65 2.4 8.65 8.52zm-12.54 9v.51c0 2.35 1.12 3.57 2.65 3.57s3.36-1.37 4.84-4v-3.68a25.12 25.12 0 00-3.62-.3c-2.55 0-3.87 1.43-3.87 3.87zm24.27 7.98h-5.05V.56h5.05z" data-name="Layer 1"/></g></svg>