<svg xmlns="http://www.w3.org/2000/svg" viewBox="0 0 260.48 248.18"><defs><style>.cls-1{fill:none}</style></defs><g id="Layer_2" data-name="Layer 2"><g id="Layer_3" data-name="Layer 3"><path class="cls-1" d="M90.18 88.25a82.68 82.68 0 0040.06 70.23 82.69 82.69 0 0040.07-70.23 82.44 82.44 0 00-80.13 0zm32.26 32.89c0 4.89-2.21 7.25-7.35 7.25a15 15 0 01-3.07-.34v-3.41a23.57 23.57 0 003.27.24c2 0 3.07-.91 3.07-3.41v-25.1h4.08zm26.59-17v1.2a8 8 0 01-5.95 7.92l8.16 14.5h-4.56l-7.63-13.63a43.69 43.69 0 01-5.33-.1v13.73h-4.08V96c2.69-.1 5.61-.24 8.35-.24 7.82.03 11.01 3.34 11.01 8.43z"/><path class="cls-1" d="M47.6 159.93a82.41 82.41 0 0077.64 1.32 87.67 87.67 0 01-40-70 82.62 82.62 0 00-37.64 68.68zm87.64 1.32a82.43 82.43 0 0077.65-1.32 82.65 82.65 0 00-37.65-68.69 87.67 87.67 0 01-40 70.01z"/><path class="cls-1" d="M85.19 85.35a87.69 87.69 0 0140.05-71.28 82.62 82.62 0 00-82.58 142.87 87.72 87.72 0 0142.53-71.59zM145 105.29v-1c0-3.36-2-5.08-7.06-5.08-1 0-2.83 0-4.17.14v11.28a40.89 40.89 0 004.32.24c4.85.04 6.91-2.12 6.91-5.58zM172.82 5a82.21 82.21 0 00-37.58 9.07 87.69 87.69 0 0140 71.28 87.7 87.7 0 0142.53 71.59A82.62 82.62 0 00172.82 5zm-42.58 159.26a87.52 87.52 0 01-82.48 1.44 82.64 82.64 0 00165 0 87.52 87.52 0 01-82.48-1.44z"/><path class="cls-1" d="M130.24 16.84a82.74 82.74 0 00-39.9 65.64 87.55 87.55 0 0179.8 0 82.71 82.71 0 00-39.9-65.64z"/><path d="M260.48 87.66a87.63 87.63 0 00-130.24-76.6 87.64 87.64 0 00-87.63 151.77 87.66 87.66 0 00175.26 0 87.69 87.69 0 0042.61-75.17zM5 87.66a82.61 82.61 0 01120.24-73.59 87.69 87.69 0 00-40 71.28 87.72 87.72 0 00-42.53 71.59A82.63 82.63 0 015 87.66zm207.89 72.27a82.43 82.43 0 01-77.65 1.32 87.67 87.67 0 0040-70 82.65 82.65 0 0137.65 68.68zm-82.65-1.45a82.68 82.68 0 01-40.06-70.23 82.44 82.44 0 0180.13 0 82.69 82.69 0 01-40.07 70.23zm-45-67.24a87.67 87.67 0 0040 70 82.41 82.41 0 01-77.64-1.32 82.62 82.62 0 0137.64-68.68zm45-18.38a87.08 87.08 0 00-39.9 9.62 82.74 82.74 0 0139.9-65.64 82.71 82.71 0 0139.9 65.64 87.08 87.08 0 00-39.9-9.62zm0 170.32a82.76 82.76 0 01-82.48-77.48 87.52 87.52 0 0082.48-1.44 87.52 87.52 0 0082.48 1.44 82.75 82.75 0 01-82.48 77.48zm87.58-86.24a87.7 87.7 0 00-42.53-71.59 87.69 87.69 0 00-40-71.28 82.62 82.62 0 0182.58 142.87z" fill="#fff"/></g></g></svg>