<svg xmlns="http://www.w3.org/2000/svg" viewBox="0 0 263.56 45.44"><g id="Layer_2" data-name="Layer 2"><g id="Layer_1-2" data-name="Layer 1"><path d="M21,10.5v1.23a8.6,8.6,0,0,1-6,8.41l8.47,15.25H17.75L10,21.37a32.65,32.65,0,0,1-4.9-.11V35.39H0V1.63c2.91-.1,6.37-.25,9.08-.25C17.49,1.38,21,5,21,10.5ZM5.1,5.92v11c1.89.15,2.8.2,4,.2,4.74,0,6.73-2.09,6.73-5.45v-.92c0-3.26-2-5-6.83-5C8.06,5.76,6.32,5.81,5.1,5.92Z"/><path d="M44.62,19.23v7.44c0,5.87-2.85,9.33-9.12,9.33s-9.13-3.46-9.13-9.33V19.23c0-5.87,2.85-9.34,9.13-9.34S44.62,13.36,44.62,19.23Zm-13.26-.31V27c0,3.11,1.53,4.74,4.08,4.74s4.08-1.63,4.08-4.74V18.87c0-3.11-1.53-4.69-4.08-4.69S31.36,15.81,31.36,18.92Z"/><path d="M63.34,10.56l8.11-.11v4.44l-4.08-.15a8.43,8.43,0,0,1,.82,3.67v1c0,4.69-3.12,8.11-8.93,8.11a13.57,13.57,0,0,1-3.77-.46,2.41,2.41,0,0,0-1,1.83v.31c0,.92.46,1.33,2.14,1.48l7.24.51A5.57,5.57,0,0,1,69.36,37v1.89c0,4.18-1.89,6.53-10.81,6.53a34.47,34.47,0,0,1-8.16-1.23l.15-4.59a29,29,0,0,0,8,1.48c5.25,0,5.86-.76,5.86-2.85v-.36a2,2,0,0,0-2.14-2.19l-7.39-.51c-3.47-.21-5.15-2-5.15-4.85v-1a5.16,5.16,0,0,1,2.39-4.13c-1.22-1.32-1.73-3.31-1.73-6.22V18c0-4.79,3-8.06,8.92-8.06A11.84,11.84,0,0,1,63.34,10.56Zm-7.9,7.29v1.63c0,3.21.66,3.82,3.57,3.82s4.13-1.37,4.13-3.77V18.1a8.64,8.64,0,0,0-.56-3.36,8.92,8.92,0,0,0-3.27-.56C56.86,14.18,55.44,15.45,55.44,17.85Z"/><path d="M80.68,35.39H75.63V.56h5.05Z"/><path d="M104.8,19.12v5.46H92.1v2.55c0,3.11,1.38,4.38,4.8,4.38a39.6,39.6,0,0,0,6.73-.81l.1,4.38a42.08,42.08,0,0,1-7.09.92c-6.93,0-9.58-2.9-9.58-9.33V19.12c0-5.91,2.85-9.23,8.82-9.23C101.64,9.89,104.8,13.11,104.8,19.12Zm-12.75-.71V20.7h7.7V18.56c0-3-1.53-4.38-3.87-4.38S92.05,15.66,92.05,18.41Z"/><path d="M123.37,10.5l-.11,4.39a21.62,21.62,0,0,0-5-.66c-3,0-4.13,1-4.13,2.55v.35c0,1.13.51,1.64,1.93,2.3l4.75,2.19c3,1.38,4.38,3.47,4.38,6.12v1.07c0,4.69-2.55,7.19-8.82,7.19a28.15,28.15,0,0,1-6.73-1.07l.2-4.54a25.2,25.2,0,0,0,6.48,1.12c3,0,3.87-.76,3.87-2.55v-.4a2.62,2.62,0,0,0-1.83-2.76l-4.74-2c-3.11-1.42-4.49-3.36-4.49-6v-.72c.1-4.69,2.65-7.19,8.82-7.19A25.66,25.66,0,0,1,123.37,10.5Z"/><path d="M162.53,14.84V23c0,8.26-4.38,13-13.15,13-3.32,0-6.07-.1-9.18-.3V1.63c2.44-.1,5.71-.25,9.53-.25C157.94,1.38,162.53,6.17,162.53,14.84ZM145.3,5.92V31.31c1.73.15,3.06.26,4.18.26,4.79,0,7.9-2.81,7.9-8.21V14.53c0-5.86-3-8.72-7.9-8.72C148.05,5.81,146.67,5.86,145.3,5.92Z"/><path d="M174.77,2.65V4.08c0,1.63-1.12,2.6-3.16,2.6s-3.11-1-3.11-2.6V2.65C168.5.92,169.62,0,171.61,0S174.77.92,174.77,2.65Zm-.61,32.74h-5V10.5h5Z"/><path d="M193.39,10.56l8.11-.11v4.44l-4.08-.15a8.43,8.43,0,0,1,.81,3.67v1c0,4.69-3.11,8.11-8.92,8.11a13.65,13.65,0,0,1-3.78-.46,2.43,2.43,0,0,0-1,1.83v.31c0,.92.45,1.33,2.14,1.48l7.24.51A5.57,5.57,0,0,1,199.4,37v1.89c0,4.18-1.88,6.53-10.81,6.53a34.39,34.39,0,0,1-8.15-1.23l.15-4.59a28.94,28.94,0,0,0,8,1.48c5.26,0,5.87-.76,5.87-2.85v-.36a2,2,0,0,0-2.14-2.19l-7.4-.51c-3.46-.21-5.15-2-5.15-4.85v-1a5.17,5.17,0,0,1,2.4-4.13c-1.22-1.32-1.73-3.31-1.73-6.22V18c0-4.79,2.95-8.06,8.92-8.06A11.84,11.84,0,0,1,193.39,10.56Zm-7.91,7.29v1.63c0,3.21.67,3.82,3.57,3.82s4.13-1.37,4.13-3.77V18.1a8.46,8.46,0,0,0-.56-3.36,8.86,8.86,0,0,0-3.26-.56C186.91,14.18,185.48,15.45,185.48,17.85Z"/><path d="M211.34,2.65V4.08c0,1.63-1.12,2.6-3.16,2.6s-3.11-1-3.11-2.6V2.65c0-1.73,1.12-2.65,3.11-2.65S211.34.92,211.34,2.65Zm-.61,32.74h-5V10.5h5Z"/><path d="M223.53,10.5H230v4.24h-6.42V28.2c0,2.45,1,3.42,3,3.42a20.33,20.33,0,0,0,4.18-.51l.1,4.28a19.82,19.82,0,0,1-4.38.61c-5.51,0-8-2.24-8-8.11V14.74h-3.42V10.5h3.47l.82-6.62h4.18Z"/><path d="M251.83,18.41v17h-4.74V31.67C245.2,34.52,243,36,240.66,36c-3.87,0-6.42-2.8-6.42-7.7V26.93c0-4.19,2.91-7.19,7.75-7.19a31.47,31.47,0,0,1,4.79.56V17.9c0-2.65-1.17-3.62-3.82-3.62a45.4,45.4,0,0,0-6.78.81V10.71a49.44,49.44,0,0,1,7-.82C249.28,9.89,251.83,12.29,251.83,18.41Zm-12.54,9v.51c0,2.35,1.12,3.57,2.65,3.57s3.36-1.37,4.84-4V23.81a25.12,25.12,0,0,0-3.62-.3C240.61,23.51,239.29,24.94,239.29,27.38Z"/><path d="M263.56,35.39h-5.05V.56h5.05Z"/></g></g></svg>